<mxfile host="app.diagrams.net" modified="2022-06-17T03:07:12.244Z" agent="5.0 (Macintosh; Intel Mac OS X 10_15_7) AppleWebKit/605.1.15 (KHTML, like Gecko) Version/15.4 Safari/605.1.15" etag="o7PQTJLsYrXEGixFzPbw" version="18.0.3" type="github" pages="2">
  <diagram id="2YjdYYAj1g0u_zeVgQy0" name="Pre-Collecting">
    <mxGraphModel dx="946" dy="673" grid="1" gridSize="10" guides="1" tooltips="1" connect="1" arrows="1" fold="1" page="1" pageScale="1" pageWidth="827" pageHeight="1169" math="0" shadow="0">
      <root>
        <mxCell id="0" />
        <mxCell id="1" parent="0" />
        <mxCell id="yK2CEtmuth3zicIcDCYq-6" value="" style="edgeStyle=orthogonalEdgeStyle;rounded=0;orthogonalLoop=1;jettySize=auto;html=1;" edge="1" parent="1" source="yK2CEtmuth3zicIcDCYq-4" target="yK2CEtmuth3zicIcDCYq-5">
          <mxGeometry relative="1" as="geometry">
            <Array as="points">
              <mxPoint x="160" y="280" />
              <mxPoint x="160" y="130" />
            </Array>
          </mxGeometry>
        </mxCell>
        <mxCell id="yK2CEtmuth3zicIcDCYq-12" value="" style="edgeStyle=orthogonalEdgeStyle;rounded=0;orthogonalLoop=1;jettySize=auto;html=1;" edge="1" parent="1" source="yK2CEtmuth3zicIcDCYq-4" target="yK2CEtmuth3zicIcDCYq-11">
          <mxGeometry relative="1" as="geometry">
            <Array as="points">
              <mxPoint x="160" y="280" />
              <mxPoint x="160" y="360" />
            </Array>
          </mxGeometry>
        </mxCell>
        <mxCell id="yK2CEtmuth3zicIcDCYq-15" value="" style="edgeStyle=orthogonalEdgeStyle;rounded=0;orthogonalLoop=1;jettySize=auto;html=1;" edge="1" parent="1" source="yK2CEtmuth3zicIcDCYq-4" target="yK2CEtmuth3zicIcDCYq-14">
          <mxGeometry relative="1" as="geometry">
            <Array as="points">
              <mxPoint x="160" y="280" />
              <mxPoint x="160" y="440" />
            </Array>
          </mxGeometry>
        </mxCell>
        <mxCell id="yK2CEtmuth3zicIcDCYq-4" value="user" style="rounded=1;whiteSpace=wrap;html=1;" vertex="1" parent="1">
          <mxGeometry x="10" y="250" width="120" height="60" as="geometry" />
        </mxCell>
        <mxCell id="yK2CEtmuth3zicIcDCYq-5" value="webhook" style="whiteSpace=wrap;html=1;rounded=1;" vertex="1" parent="1">
          <mxGeometry x="200" y="100" width="120" height="60" as="geometry" />
        </mxCell>
        <UserObject label="PosAja" link="data:page/id,hjI0pMBldCm1E6KZdcSo" id="yK2CEtmuth3zicIcDCYq-7">
          <mxCell style="whiteSpace=wrap;html=1;rounded=1;" vertex="1" parent="1">
            <mxGeometry x="200" y="190" width="120" height="60" as="geometry" />
          </mxCell>
        </UserObject>
        <mxCell id="yK2CEtmuth3zicIcDCYq-11" value="e-Commerce" style="whiteSpace=wrap;html=1;rounded=1;" vertex="1" parent="1">
          <mxGeometry x="200" y="320" width="120" height="60" as="geometry" />
        </mxCell>
        <mxCell id="yK2CEtmuth3zicIcDCYq-13" value="" style="endArrow=classic;html=1;rounded=0;exitX=1;exitY=0.5;exitDx=0;exitDy=0;entryX=0;entryY=0.5;entryDx=0;entryDy=0;" edge="1" parent="1" source="yK2CEtmuth3zicIcDCYq-4" target="yK2CEtmuth3zicIcDCYq-7">
          <mxGeometry width="50" height="50" relative="1" as="geometry">
            <mxPoint x="140" y="280" as="sourcePoint" />
            <mxPoint x="190" y="230" as="targetPoint" />
            <Array as="points">
              <mxPoint x="150" y="280" />
              <mxPoint x="160" y="280" />
              <mxPoint x="160" y="240" />
              <mxPoint x="160" y="220" />
            </Array>
          </mxGeometry>
        </mxCell>
        <mxCell id="yK2CEtmuth3zicIcDCYq-14" value="external" style="whiteSpace=wrap;html=1;rounded=1;" vertex="1" parent="1">
          <mxGeometry x="200" y="420" width="120" height="60" as="geometry" />
        </mxCell>
      </root>
    </mxGraphModel>
  </diagram>
  <diagram id="hjI0pMBldCm1E6KZdcSo" name="PosAja">
    <mxGraphModel dx="946" dy="673" grid="1" gridSize="10" guides="1" tooltips="1" connect="1" arrows="1" fold="1" page="1" pageScale="1" pageWidth="827" pageHeight="1169" math="0" shadow="0">
      <root>
        <mxCell id="0" />
        <mxCell id="1" parent="0" />
        <mxCell id="I13PXtcLLr6iYJX49Mm1-3" value="" style="edgeStyle=orthogonalEdgeStyle;rounded=0;orthogonalLoop=1;jettySize=auto;html=1;" edge="1" parent="1" source="I13PXtcLLr6iYJX49Mm1-1" target="I13PXtcLLr6iYJX49Mm1-2">
          <mxGeometry relative="1" as="geometry" />
        </mxCell>
        <mxCell id="I13PXtcLLr6iYJX49Mm1-5" value="" style="edgeStyle=orthogonalEdgeStyle;rounded=0;orthogonalLoop=1;jettySize=auto;html=1;" edge="1" parent="1" source="I13PXtcLLr6iYJX49Mm1-1" target="I13PXtcLLr6iYJX49Mm1-4">
          <mxGeometry relative="1" as="geometry" />
        </mxCell>
        <mxCell id="I13PXtcLLr6iYJX49Mm1-1" value="user" style="rounded=1;whiteSpace=wrap;html=1;" vertex="1" parent="1">
          <mxGeometry x="10" y="290" width="120" height="60" as="geometry" />
        </mxCell>
        <mxCell id="I13PXtcLLr6iYJX49Mm1-7" value="" style="edgeStyle=orthogonalEdgeStyle;rounded=0;orthogonalLoop=1;jettySize=auto;html=1;" edge="1" parent="1" source="I13PXtcLLr6iYJX49Mm1-2" target="I13PXtcLLr6iYJX49Mm1-6">
          <mxGeometry relative="1" as="geometry" />
        </mxCell>
        <mxCell id="I13PXtcLLr6iYJX49Mm1-2" value="COD" style="whiteSpace=wrap;html=1;rounded=1;" vertex="1" parent="1">
          <mxGeometry x="170" y="120" width="120" height="60" as="geometry" />
        </mxCell>
        <mxCell id="X-8fQvIHJOdwMAbj6lB9-7" value="" style="edgeStyle=orthogonalEdgeStyle;rounded=0;orthogonalLoop=1;jettySize=auto;html=1;" edge="1" parent="1" source="I13PXtcLLr6iYJX49Mm1-4" target="X-8fQvIHJOdwMAbj6lB9-6">
          <mxGeometry relative="1" as="geometry" />
        </mxCell>
        <mxCell id="I13PXtcLLr6iYJX49Mm1-4" value="NON COD" style="whiteSpace=wrap;html=1;rounded=1;" vertex="1" parent="1">
          <mxGeometry x="170" y="460" width="120" height="60" as="geometry" />
        </mxCell>
        <mxCell id="I13PXtcLLr6iYJX49Mm1-9" value="" style="edgeStyle=orthogonalEdgeStyle;rounded=0;orthogonalLoop=1;jettySize=auto;html=1;" edge="1" parent="1" source="I13PXtcLLr6iYJX49Mm1-6" target="I13PXtcLLr6iYJX49Mm1-8">
          <mxGeometry relative="1" as="geometry" />
        </mxCell>
        <mxCell id="I13PXtcLLr6iYJX49Mm1-11" value="" style="edgeStyle=orthogonalEdgeStyle;rounded=0;orthogonalLoop=1;jettySize=auto;html=1;" edge="1" parent="1" source="I13PXtcLLr6iYJX49Mm1-6" target="I13PXtcLLr6iYJX49Mm1-10">
          <mxGeometry relative="1" as="geometry" />
        </mxCell>
        <mxCell id="I13PXtcLLr6iYJX49Mm1-6" value="cek rekening" style="rhombus;whiteSpace=wrap;html=1;rounded=1;" vertex="1" parent="1">
          <mxGeometry x="350" y="110" width="80" height="80" as="geometry" />
        </mxCell>
        <mxCell id="X-8fQvIHJOdwMAbj6lB9-13" value="" style="edgeStyle=orthogonalEdgeStyle;rounded=0;orthogonalLoop=1;jettySize=auto;html=1;" edge="1" parent="1" source="I13PXtcLLr6iYJX49Mm1-8" target="X-8fQvIHJOdwMAbj6lB9-12">
          <mxGeometry relative="1" as="geometry" />
        </mxCell>
        <mxCell id="X-8fQvIHJOdwMAbj6lB9-15" value="" style="edgeStyle=orthogonalEdgeStyle;rounded=0;orthogonalLoop=1;jettySize=auto;html=1;" edge="1" parent="1" source="I13PXtcLLr6iYJX49Mm1-8" target="X-8fQvIHJOdwMAbj6lB9-14">
          <mxGeometry relative="1" as="geometry" />
        </mxCell>
        <mxCell id="I13PXtcLLr6iYJX49Mm1-8" value="Order/Multi Order" style="whiteSpace=wrap;html=1;rounded=1;" vertex="1" parent="1">
          <mxGeometry x="490" y="120" width="120" height="60" as="geometry" />
        </mxCell>
        <mxCell id="X-8fQvIHJOdwMAbj6lB9-2" value="" style="edgeStyle=orthogonalEdgeStyle;rounded=0;orthogonalLoop=1;jettySize=auto;html=1;entryX=0.5;entryY=1;entryDx=0;entryDy=0;" edge="1" parent="1" source="I13PXtcLLr6iYJX49Mm1-10" target="I13PXtcLLr6iYJX49Mm1-8">
          <mxGeometry relative="1" as="geometry">
            <mxPoint x="460" y="275" as="targetPoint" />
          </mxGeometry>
        </mxCell>
        <mxCell id="I13PXtcLLr6iYJX49Mm1-10" value="create rekening giro" style="whiteSpace=wrap;html=1;rounded=1;" vertex="1" parent="1">
          <mxGeometry x="330" y="245" width="120" height="60" as="geometry" />
        </mxCell>
        <mxCell id="X-8fQvIHJOdwMAbj6lB9-3" value="YA" style="text;html=1;strokeColor=none;fillColor=none;align=center;verticalAlign=middle;whiteSpace=wrap;rounded=0;" vertex="1" parent="1">
          <mxGeometry x="420" y="120" width="46" height="20" as="geometry" />
        </mxCell>
        <mxCell id="X-8fQvIHJOdwMAbj6lB9-4" value="TIDAK" style="text;html=1;strokeColor=none;fillColor=none;align=center;verticalAlign=middle;whiteSpace=wrap;rounded=0;" vertex="1" parent="1">
          <mxGeometry x="384" y="200" width="40" height="20" as="geometry" />
        </mxCell>
        <mxCell id="X-8fQvIHJOdwMAbj6lB9-9" value="" style="edgeStyle=orthogonalEdgeStyle;rounded=0;orthogonalLoop=1;jettySize=auto;html=1;" edge="1" parent="1" source="X-8fQvIHJOdwMAbj6lB9-6" target="X-8fQvIHJOdwMAbj6lB9-8">
          <mxGeometry relative="1" as="geometry" />
        </mxCell>
        <mxCell id="X-8fQvIHJOdwMAbj6lB9-11" value="" style="edgeStyle=orthogonalEdgeStyle;rounded=0;orthogonalLoop=1;jettySize=auto;html=1;" edge="1" parent="1" source="X-8fQvIHJOdwMAbj6lB9-6" target="X-8fQvIHJOdwMAbj6lB9-10">
          <mxGeometry relative="1" as="geometry" />
        </mxCell>
        <mxCell id="X-8fQvIHJOdwMAbj6lB9-6" value="Order/Multi Order" style="whiteSpace=wrap;html=1;rounded=1;" vertex="1" parent="1">
          <mxGeometry x="330" y="460" width="120" height="60" as="geometry" />
        </mxCell>
        <mxCell id="X-8fQvIHJOdwMAbj6lB9-8" value="Pickup" style="whiteSpace=wrap;html=1;rounded=1;" vertex="1" parent="1">
          <mxGeometry x="490" y="370" width="120" height="60" as="geometry" />
        </mxCell>
        <mxCell id="X-8fQvIHJOdwMAbj6lB9-10" value="DropOff" style="whiteSpace=wrap;html=1;rounded=1;" vertex="1" parent="1">
          <mxGeometry x="490" y="540" width="120" height="60" as="geometry" />
        </mxCell>
        <mxCell id="X-8fQvIHJOdwMAbj6lB9-12" value="Pickup" style="whiteSpace=wrap;html=1;rounded=1;" vertex="1" parent="1">
          <mxGeometry x="630" y="30" width="120" height="60" as="geometry" />
        </mxCell>
        <mxCell id="X-8fQvIHJOdwMAbj6lB9-14" value="DropOff" style="whiteSpace=wrap;html=1;rounded=1;" vertex="1" parent="1">
          <mxGeometry x="630" y="200" width="120" height="60" as="geometry" />
        </mxCell>
      </root>
    </mxGraphModel>
  </diagram>
</mxfile>
